<?xml version="1.0" encoding="utf-8"?>
<svg xmlns="http://www.w3.org/2000/svg" version="1.1" viewBox="0 0 1400 440">
	<title>The titlepage for the Standard Ebooks edition of Bellarion the Fortunate, by Rafael Sabatini</title>
	<g aria-label="BELLARION">
		<path d="M409.50,52.81l23.95,0.00c13.29,0.00,23.77,4.96,23.77,19.65c0.00,7.11-3.09,13.19-9.64,16.56c9.64,1.68,16.47,7.02,16.47,19.46c0.00,12.73-9.26,21.52-25.26,21.52l-29.29,0.00l0.00-77.19z  M427.09,83.03l1.40,0.00c7.58,0.00,11.70-2.34,11.70-8.80c0.00-5.52-4.02-7.86-11.70-7.86l-1.40,0.00l0.00,16.65z  M427.09,116.43l5.52,0.00c8.33,0.00,12.91-2.53,12.91-8.61c0.00-7.11-4.58-9.64-12.91-9.64l-5.52,0.00l0.00,18.25z"/>
		<path d="M520.98,52.81l0.00,15.44l-26.57,0.00l0.00,15.35l25.45,0.00l0.00,15.44l-25.45,0.00l0.00,15.53l26.57,0.00l0.00,15.44l-44.16,0.00l0.00-77.19l44.16,0.00z"/>
		<path d="M553.67,52.81l0.00,61.75l26.57,0.00l0.00,15.44l-44.16,0.00l0.00-77.19l17.59,0.00z"/>
		<path d="M611.54,52.81l0.00,61.75l26.57,0.00l0.00,15.44l-44.16,0.00l0.00-77.19l17.59,0.00z"/>
		<path d="M692.42,52.81l31.16,77.19l-18.90,0.00l-5.71-15.44l-29.38,0.00l-5.71,15.44l-18.90,0.00l31.16-77.19l16.28,0.00z  M692.98,99.12l-8.61-22.46l-0.19,0.00l-8.61,22.46l17.40,0.00z"/>
		<path d="M731.57,52.81l27.60,0.00c14.32,0.00,25.17,7.77,25.17,22.92c0.00,11.60-6.36,19.37-15.81,22.36l26.57,31.91l-22.36,0.00l-23.58-30.50l0.00,30.50l-17.59,0.00l0.00-77.19z  M749.16,87.05l2.06,0.00c6.64,0.00,14.60-0.47,14.60-10.11s-7.95-10.11-14.60-10.11l-2.06,0.00l0.00,20.21z"/>
		<path d="M821.16,52.81l0.00,77.19l-17.59,0.00l0.00-77.19l17.59,0.00z"/>
		<path d="M833.92,91.36c0.00-22.55,17.68-39.95,38.92-39.95c21.43,0.00,38.83,17.40,38.83,39.95s-16.65,40.05-38.83,40.05c-22.83,0.00-38.92-17.50-38.92-40.05z  M852.92,91.36c0.00,11.51,5.52,23.02,19.93,23.02c14.04,0.00,19.84-11.51,19.84-23.02s-6.18-23.02-19.84-23.02c-13.57,0.00-19.93,11.51-19.93,23.02z"/>
		<path d="M942.04,82.09l0.00,47.91l-17.59,0.00l0.00-77.19l17.59,0.00l30.69,47.91l0.19,0.00l0.00-47.91l17.59,0.00l0.00,77.19l-17.59,0.00l-30.69-47.91l-0.19,0.00z"/>
	</g>
	<g aria-label="THE FORTUNATE">
		<path d="M277.35,168.25l0.00-15.44l54.27,0.00l0.00,15.44l-18.34,0.00l0.00,61.75l-17.59,0.00l0.00-61.75l-18.34,0.00z"/>
		<path d="M360.57,199.03l0.00,30.97l-17.59,0.00l0.00-77.19l17.59,0.00l0.00,30.78l24.89,0.00l0.00-30.78l17.59,0.00l0.00,77.19l-17.59,0.00l0.00-30.97l-24.89,0.00z"/>
		<path d="M463.44,152.81l0.00,15.44l-26.57,0.00l0.00,15.35l25.45,0.00l0.00,15.44l-25.45,0.00l0.00,15.53l26.57,0.00l0.00,15.44l-44.16,0.00l0.00-77.19l44.16,0.00z"/>
		<path d="M553.72,152.81l0.00,15.44l-27.04,0.00l0.00,15.35l24.98,0.00l0.00,15.44l-24.98,0.00l0.00,30.97l-17.59,0.00l0.00-77.19l44.63,0.00z"/>
		<path d="M563.68,191.36c0.00-22.55,17.68-39.95,38.92-39.95c21.43,0.00,38.83,17.40,38.83,39.95s-16.65,40.05-38.83,40.05c-22.83,0.00-38.92-17.50-38.92-40.05z  M582.67,191.36c0.00,11.51,5.52,23.02,19.93,23.02c14.04,0.00,19.84-11.51,19.84-23.02s-6.18-23.02-19.84-23.02c-13.57,0.00-19.93,11.51-19.93,23.02z"/>
		<path d="M654.20,152.81l27.60,0.00c14.32,0.00,25.17,7.77,25.17,22.92c0.00,11.60-6.36,19.37-15.81,22.36l26.57,31.91l-22.36,0.00l-23.58-30.50l0.00,30.50l-17.59,0.00l0.00-77.19z  M671.79,187.05l2.06,0.00c6.64,0.00,14.60-0.47,14.60-10.11s-7.95-10.11-14.60-10.11l-2.06,0.00l0.00,20.21z"/>
		<path d="M717.58,168.25l0.00-15.44l54.27,0.00l0.00,15.44l-18.34,0.00l0.00,61.75l-17.59,0.00l0.00-61.75l-18.34,0.00z"/>
		<path d="M842.54,152.81l0.00,49.78c0.00,19.09-10.48,28.82-30.13,28.82s-30.13-9.73-30.13-28.82l0.00-49.78l17.59,0.00l0.00,44.63c0.00,12.91,3.93,16.65,12.54,16.65s12.54-3.74,12.54-16.65l0.00-44.63l17.59,0.00z"/>
		<path d="M875.42,182.09l0.00,47.91l-17.59,0.00l0.00-77.19l17.59,0.00l30.69,47.91l0.19,0.00l0.00-47.91l17.59,0.00l0.00,77.19l-17.59,0.00l-30.69-47.91l-0.19,0.00z"/>
		<path d="M979.32,152.81l31.16,77.19l-18.90,0.00l-5.71-15.44l-29.38,0.00l-5.71,15.44l-18.90,0.00l31.16-77.19l16.28,0.00z  M979.88,199.12l-8.61-22.46l-0.19,0.00l-8.61,22.46l17.40,0.00z"/>
		<path d="M1009.12,168.25l0.00-15.44l54.27,0.00l0.00,15.44l-18.34,0.00l0.00,61.75l-17.59,0.00l0.00-61.75l-18.34,0.00z"/>
		<path d="M1118.91,152.81l0.00,15.44l-26.57,0.00l0.00,15.35l25.45,0.00l0.00,15.44l-25.45,0.00l0.00,15.53l26.57,0.00l0.00,15.44l-44.16,0.00l0.00-77.19l44.16,0.00z"/>
	</g>
	<g aria-label="RAFAEL SABATINI">
		<path d="M350.26,332.11l20.70,0.00c10.74,0.00,18.88,5.82,18.88,17.19c0.00,8.70-4.77,14.53-11.86,16.77l19.93,23.93l-16.77,0.00l-17.68-22.88l0.00,22.88l-13.19,0.00l0.00-57.89z  M363.46,357.79l1.54,0.00c4.98,0.00,10.95-0.35,10.95-7.58s-5.96-7.58-10.95-7.58l-1.54,0.00l0.00,15.16z"/>
		<path d="M434.91,332.11l23.37,57.89l-14.18,0.00l-4.28-11.58l-22.04,0.00l-4.28,11.58l-14.18,0.00l23.37-57.89l12.21,0.00z  M435.33,366.84l-6.46-16.84l-0.14,0.00l-6.46,16.84l13.05,0.00z"/>
		<path d="M499.00,332.11l0.00,11.58l-20.28,0.00l0.00,11.51l18.74,0.00l0.00,11.58l-18.74,0.00l0.00,23.23l-13.19,0.00l0.00-57.89l33.47,0.00z"/>
		<path d="M537.26,332.11l23.37,57.89l-14.18,0.00l-4.28-11.58l-22.04,0.00l-4.28,11.58l-14.18,0.00l23.37-57.89l12.21,0.00z  M537.68,366.84l-6.46-16.84l-0.14,0.00l-6.46,16.84l13.05,0.00z"/>
		<path d="M601.00,332.11l0.00,11.58l-19.93,0.00l0.00,11.51l19.09,0.00l0.00,11.58l-19.09,0.00l0.00,11.65l19.93,0.00l0.00,11.58l-33.12,0.00l0.00-57.89l33.12,0.00z"/>
		<path d="M626.77,332.11l0.00,46.32l19.93,0.00l0.00,11.58l-33.12,0.00l0.00-57.89l13.19,0.00z"/>
		<path d="M702.32,331.05c10.53,0.00,17.96,5.47,17.96,5.47l-5.33,10.53s-5.75-4.00-11.72-4.00c-4.49,0.00-6.88,2.04-6.88,5.19c0.00,3.23,5.47,5.54,12.07,8.35c6.46,2.74,13.54,8.21,13.54,15.79c0.00,13.82-10.53,18.67-21.82,18.67c-13.54,0.00-21.75-7.65-21.75-7.65l6.60-11.09s7.72,6.53,14.18,6.53c2.88,0.00,8.35-0.28,8.35-5.68c0.00-4.21-6.18-6.11-13.05-9.54c-6.95-3.44-11.02-8.84-11.02-14.88c0.00-10.81,9.54-17.68,18.88-17.68z"/>
		<path d="M762.54,332.11l23.37,57.89l-14.18,0.00l-4.28-11.58l-22.04,0.00l-4.28,11.58l-14.18,0.00l23.37-57.89l12.21,0.00z  M762.96,366.84l-6.46-16.84l-0.14,0.00l-6.46,16.84l13.05,0.00z"/>
		<path d="M793.16,332.11l17.96,0.00c9.96,0.00,17.82,3.72,17.82,14.74c0.00,5.33-2.32,9.89-7.23,12.42c7.23,1.26,12.35,5.26,12.35,14.60c0.00,9.54-6.95,16.14-18.95,16.14l-21.96,0.00l0.00-57.89z  M806.35,354.77l1.05,0.00c5.68,0.00,8.77-1.75,8.77-6.60c0.00-4.14-3.02-5.89-8.77-5.89l-1.05,0.00l0.00,12.49z  M806.35,379.82l4.14,0.00c6.25,0.00,9.68-1.89,9.68-6.46c0.00-5.33-3.44-7.23-9.68-7.23l-4.14,0.00l0.00,13.68z"/>
		<path d="M872.89,332.11l23.37,57.89l-14.18,0.00l-4.28-11.58l-22.04,0.00l-4.28,11.58l-14.18,0.00l23.37-57.89l12.21,0.00z  M873.32,366.84l-6.46-16.84l-0.14,0.00l-6.46,16.84l13.05,0.00z"/>
		<path d="M896.49,343.68l0.00-11.58l40.70,0.00l0.00,11.58l-13.75,0.00l0.00,46.32l-13.19,0.00l0.00-46.32l-13.75,0.00z"/>
		<path d="M960.16,332.11l0.00,57.89l-13.19,0.00l0.00-57.89l13.19,0.00z"/>
		<path d="M986.77,354.07l0.00,35.93l-13.19,0.00l0.00-57.89l13.19,0.00l23.02,35.93l0.14,0.00l0.00-35.93l13.19,0.00l0.00,57.89l-13.19,0.00l-23.02-35.93l-0.14,0.00z"/>
		<path d="M1049.74,332.11l0.00,57.89l-13.19,0.00l0.00-57.89l13.19,0.00z"/>
	</g>
</svg>
